<svg width="334" height="443" viewBox="0 0 334 443" fill="none" xmlns="http://www.w3.org/2000/svg">
<g clip-path="url(#clip0_43_343)">
<path d="M180.529 193.6L112.726 170.66C111.05 170.093 110.167 168.26 110.769 166.596L120.455 139.822C122.122 135.216 127.325 132.969 131.82 134.912L235.9 179.919L318.161 203.683C322.724 205.001 327.181 206.662 331.494 208.651L404.519 242.323L500.98 276.73C503.965 277.795 505.497 281.102 504.377 284.067L488.857 325.188C487.501 328.78 483.381 330.465 479.896 328.852L379.849 282.537L283.003 244.329L192.859 198.771C188.876 196.758 184.756 195.03 180.529 193.6Z" fill="white"/>
<path d="M163.769 84.0977L119.237 102.671C101.613 110.022 108.09 136.413 127.115 134.769C127.379 134.746 127.575 135.011 127.475 135.257L115.096 165.896C114.518 167.327 112.991 168.13 111.484 167.795L85.9809 162.124L54.6597 151.171L70.9678 110.807C72.2849 107.547 74.5374 104.75 77.4414 102.769L79.3366 101.475C90.6327 93.7668 103.49 88.644 116.992 86.4719L162.367 79.1723C165.384 78.6871 166.589 82.9218 163.769 84.0977Z" fill="white"/>
<rect x="29.2734" y="205.594" width="25.252" height="41.0346" rx="6.31301" transform="rotate(-68 29.2734 205.594)" fill="white"/>
<path d="M72.6507 198.467C72.657 198.863 72.258 199.137 71.8913 198.989L41.1543 186.57C40.8378 186.442 40.7636 186.028 41.0161 185.798V185.798C50.4367 177.23 55.4739 164.859 54.718 152.147L54.6602 151.174L87.0798 160.965C87.5258 161.1 87.6815 161.652 87.3717 162L85.3619 164.257C76.985 173.663 72.4481 185.873 72.6507 198.467V198.467Z" fill="white"/>
<line y1="-3.07576" x2="67.6667" y2="-3.07576" transform="matrix(4.37114e-08 -1 -1 -4.37114e-08 35.6523 443.667)" stroke="white" stroke-width="6.15152"/>
<ellipse cx="9.22727" cy="1.53788" rx="9.22727" ry="1.53788" transform="matrix(-1 0 0 1 47.9531 376)" fill="white"/>
</g>
<defs>
<clipPath id="clip0_43_343">
<rect width="334" height="443" fill="white"/>
</clipPath>
</defs>
</svg>
